<svg version="1.1" xmlns="http://www.w3.org/2000/svg" style="display: block;" viewBox="0 0 2816 1536" width="2816" height="1536" preserveAspectRatio="none">
<path transform="translate(0,0)" fill="rgb(247,250,250)" d="M 0 0 L 2816 0 L 2816 1536 L 0 1536 L 0 0 z"/>
<path transform="translate(0,0)" fill="rgb(11,119,186)" d="M 1663.16 252.348 L 1666.53 251.782 L 1667.75 252.661 C 1668.37 274.301 1665.25 313.423 1664.23 336.047 C 1661.54 392.499 1659.31 448.972 1657.53 505.461 L 1596.44 452.768 C 1571.05 490.018 1544.92 526.757 1518.07 562.962 C 1519.68 523.794 1512.34 482.473 1505.27 443.844 C 1500.38 443.773 1465.63 454.284 1458.37 456.302 C 1432.18 463.586 1405.93 470.611 1379.61 477.377 C 1416.01 435.101 1452.69 393.968 1488.73 351.233 C 1473.39 336.282 1443.47 312.397 1426.32 297.403 C 1434.44 295.082 1449.56 292.678 1458.22 291.04 L 1521.77 279.198 C 1567.78 270.639 1617.42 259.853 1663.16 252.348 z"/>
<path transform="translate(0,0)" fill="rgb(16,84,155)" d="M 1663.16 252.348 L 1666.53 251.782 L 1667.75 252.661 C 1668.37 274.301 1665.25 313.423 1664.23 336.047 C 1661.54 392.499 1659.31 448.972 1657.53 505.461 L 1596.44 452.768 C 1571.05 490.018 1544.92 526.757 1518.07 562.962 C 1519.68 523.794 1512.34 482.473 1505.27 443.844 C 1506.7 439.461 1557.74 382.269 1566.38 371.126 C 1585.29 346.757 1615.08 315.669 1634.92 290.449 C 1642.79 280.449 1657.73 267.072 1663.54 256.539 C 1663.04 254.866 1662.65 254.066 1663.16 252.348 z"/>
<path transform="translate(0,0)" fill="rgb(11,119,186)" d="M 1360.63 328.945 C 1390.83 325.109 1419.92 333.645 1424.87 367.612 C 1426.97 382.065 1420.91 396.821 1411.63 407.637 C 1361.1 466.502 1304.46 523.006 1270.98 593.988 C 1261.48 614.121 1251.66 637.84 1253.7 660.427 C 1254.74 671.823 1270.78 702.292 1278.61 710.261 C 1277.81 710.983 1275.53 715.58 1274.5 717.104 C 1266.75 721.713 1249.44 721.315 1240.8 720.895 C 1195.57 718.697 1180.55 683.541 1192.6 643.354 C 1194.88 635.729 1201.64 623.501 1201.6 615.966 C 1206.14 603.126 1242.77 557.332 1251.71 542.852 C 1281.61 494.422 1311.38 445.741 1340.47 396.833 C 1281.98 403.846 1230.89 457.307 1222.78 515.056 C 1221.98 527.52 1221.73 533.203 1224.38 545.703 C 1224.27 548.038 1215.34 558.209 1213.37 560.765 C 1196.96 582.073 1183.55 604.027 1171.93 628.213 C 1153.52 599.134 1147.67 569.341 1150.62 535.189 C 1154.88 485.864 1183.1 423.788 1221.85 392.044 C 1228.56 379.541 1276.91 352.255 1291.64 346.376 C 1301.91 338.556 1346.28 329.486 1360.63 328.945 z"/>
<path transform="translate(0,0)" fill="rgb(11,119,186)" d="M 1221.85 392.044 C 1228.56 379.541 1276.91 352.255 1291.64 346.376 C 1290.55 349.19 1280.49 354.825 1277.02 357.051 C 1273.37 359.387 1266.66 365.746 1263.84 367.212 C 1241.24 390.529 1225.15 410.818 1215.28 442.519 C 1204.35 477.633 1202.93 513.922 1224.38 545.703 C 1224.27 548.038 1215.34 558.209 1213.37 560.765 C 1196.96 582.073 1183.55 604.027 1171.93 628.213 C 1153.52 599.134 1147.67 569.341 1150.62 535.189 C 1154.88 485.864 1183.1 423.788 1221.85 392.044 z"/>
<path transform="translate(0,0)" fill="rgb(12,160,198)" d="M 1291.64 346.376 C 1301.91 338.556 1346.28 329.486 1360.63 328.945 C 1282.35 349.876 1217.67 415.883 1220.35 500.543 C 1220.46 504.074 1220.03 513.974 1221.66 516.357 L 1222.78 515.056 C 1221.98 527.52 1221.73 533.203 1224.38 545.703 C 1202.93 513.922 1204.35 477.633 1215.28 442.519 C 1225.15 410.818 1241.24 390.529 1263.84 367.212 C 1266.66 365.746 1273.37 359.387 1277.02 357.051 C 1280.49 354.825 1290.55 349.19 1291.64 346.376 z"/>
<path transform="translate(0,0)" fill="rgb(11,46,88)" d="M 1534.49 576.095 C 1553.25 552.709 1569.93 526.507 1587.59 502.259 C 1610.67 531.145 1617.98 568.399 1614.34 604.686 C 1614.07 607.401 1613.21 615.387 1612.51 617.695 C 1607.32 653.797 1588.45 702.953 1563.6 730.011 C 1561.92 732.542 1558.4 737.663 1555.9 739.151 C 1525.51 780.299 1462.91 810.376 1412.72 818.611 C 1391.55 821.31 1367.82 822.344 1352.82 803.922 C 1346.54 796.196 1341.88 771.294 1349.91 765.315 C 1360.83 757.177 1376.11 749.74 1387.7 741.653 C 1398.03 734.448 1407.24 726.409 1417.27 718.897 C 1442.03 695.588 1454.57 683.981 1477.41 657.657 C 1470.89 672.16 1457.35 695.692 1449.36 709.968 C 1442.97 723.333 1435.06 735.877 1429.13 749.29 C 1438.04 747.359 1443.46 745.537 1452 742.611 C 1461.93 737.845 1469.67 733.374 1479.2 727.794 L 1479.78 727.52 C 1488.15 720.224 1495.2 715.026 1503.8 707.031 C 1530.42 676.564 1552.1 636.944 1540.3 595.217 C 1538.66 589.421 1533.46 579.981 1534.49 576.095 z"/>
<path transform="translate(0,0)" fill="rgb(16,84,155)" d="M 1534.49 576.095 C 1553.25 552.709 1569.93 526.507 1587.59 502.259 C 1610.67 531.145 1617.98 568.399 1614.34 604.686 C 1614.07 607.401 1613.21 615.387 1612.51 617.695 C 1607.32 653.797 1588.45 702.953 1563.6 730.011 C 1561.92 732.542 1558.4 737.663 1555.9 739.151 C 1525.51 780.299 1462.91 810.376 1412.72 818.611 C 1417.54 814.582 1439.61 808.223 1447 804.731 C 1454.65 801.119 1461.59 797.31 1469.11 793.359 C 1471.23 792.131 1473.32 790.862 1475.38 789.553 C 1513.26 765.599 1543.11 722.738 1552.7 678.927 C 1560.62 643.593 1554.06 606.561 1534.49 576.095 z"/>
<path transform="translate(0,0)" fill="rgb(14,45,78)" d="M 1417.27 718.897 C 1442.03 695.588 1454.57 683.981 1477.41 657.657 C 1470.89 672.16 1457.35 695.692 1449.36 709.968 C 1448.71 702.727 1454.73 701.045 1450.95 695.362 C 1441.09 694.569 1427.35 718.417 1417.27 718.897 z"/>
<path transform="translate(0,0)" fill="rgb(16,84,155)" d="M 1498.4 546.733 C 1501.84 540.414 1505.19 534.051 1508.46 527.646 C 1504.64 597.611 1465.94 646.541 1415.63 692.271 C 1371.76 732.155 1306.68 770.678 1245.58 769.006 C 1199.61 767.749 1174.45 727.194 1178.92 684.83 C 1181.2 663.124 1189.33 634.418 1201.6 615.966 C 1201.64 623.501 1194.88 635.729 1192.6 643.354 C 1180.55 683.541 1195.57 718.697 1240.8 720.895 C 1249.44 721.315 1266.75 721.713 1274.5 717.104 C 1275.53 715.58 1277.81 710.983 1278.61 710.261 C 1284.98 691.692 1299.7 667.167 1313.05 652.763 C 1335.03 629.052 1352 620.184 1383.34 618.594 C 1390.15 617.93 1406.24 616.804 1412.11 615.333 C 1452.59 605.197 1477.33 580.052 1498.4 546.733 z"/>
<path transform="translate(0,0)" fill="rgb(11,119,186)" d="M 1498.4 546.733 L 1500.45 548.28 C 1501.19 555.347 1480.39 586.554 1475.42 593.056 C 1446.42 630.949 1415.32 651.598 1377.62 678.702 C 1386.37 658.929 1385.54 641.325 1385 620.029 C 1384.53 619.592 1383.85 618.852 1383.34 618.594 C 1390.15 617.93 1406.24 616.804 1412.11 615.333 C 1452.59 605.197 1477.33 580.052 1498.4 546.733 z"/>
<path transform="translate(0,0)" fill="rgb(247,250,250)" d="M 1332.96 677.987 C 1337.34 678.513 1338.69 679.192 1340.54 683.073 C 1339.46 701.473 1303.4 712.444 1288.76 715.831 C 1286.27 716.255 1286.13 716.356 1283.51 716.117 L 1283.68 714.223 C 1290.02 704.564 1320.98 681.596 1332.96 677.987 z"/>
<path transform="translate(0,0)" fill="rgb(16,84,155)" d="M 1374.39 499.405 L 1451.66 515.802 C 1441.38 522.484 1429.55 529.16 1418.91 535.444 L 1422.54 551.344 L 1424.71 558.159 C 1433.06 585.592 1411.76 614.362 1383.21 609.702 C 1349.72 602.462 1349.48 581.342 1344.98 552.657 L 1326.92 549.955 C 1325.88 562.988 1331.16 579.787 1332.21 593.971 L 1330.81 595.354 C 1326.69 596.353 1320.98 596.782 1317.15 594.686 C 1316.42 590.646 1320.19 583.139 1320.39 579.32 C 1320.9 568.994 1322.12 559.4 1322.12 549.091 L 1307.55 546.504 C 1329.2 530.698 1352.4 514.895 1374.39 499.405 z"/>
<path transform="translate(0,0)" fill="rgb(11,119,186)" d="M 1422.54 551.344 L 1424.71 558.159 C 1433.06 585.592 1411.76 614.362 1383.21 609.702 C 1383.91 609.326 1384.62 608.95 1385.33 608.573 C 1385.38 594.002 1377.03 575.872 1384.82 562.149 C 1388.3 556.037 1396.55 554.048 1403.26 552.533 C 1408.66 551.689 1420.64 552.945 1422.54 551.344 z"/>
<path transform="translate(0,0)" fill="rgb(12,160,198)" d="M 1555.18 1108.07 C 1579.74 1105.3 1601.92 1122.9 1604.81 1147.45 C 1607.7 1172 1590.21 1194.27 1565.67 1197.28 C 1540.97 1200.31 1518.51 1182.67 1515.6 1157.94 C 1512.69 1133.22 1530.45 1110.85 1555.18 1108.07 z"/>
<path transform="translate(0,0)" fill="rgb(247,250,250)" d="M 1553.6 1127.76 C 1562.63 1125.38 1572.25 1128.08 1578.71 1134.82 C 1585.18 1141.56 1587.48 1151.27 1584.71 1160.2 C 1581.95 1169.12 1574.57 1175.84 1565.43 1177.75 C 1551.8 1180.6 1538.38 1172.07 1535.17 1158.51 C 1531.97 1144.96 1540.14 1131.33 1553.6 1127.76 z"/>
<path transform="translate(0,0)" fill="rgb(12,160,198)" d="M 1261.5 1108.3 C 1286.09 1104.81 1308.83 1121.98 1312.2 1146.59 C 1315.57 1171.19 1298.3 1193.85 1273.67 1197.11 C 1249.21 1200.35 1226.73 1183.21 1223.38 1158.76 C 1220.03 1134.31 1237.07 1111.76 1261.5 1108.3 z"/>
<path transform="translate(0,0)" fill="rgb(247,250,250)" d="M 1260.86 1127.79 C 1269.86 1125.29 1279.52 1127.87 1286.08 1134.53 C 1292.65 1141.19 1295.09 1150.88 1292.45 1159.85 C 1289.82 1168.82 1282.54 1175.66 1273.42 1177.72 C 1259.78 1180.8 1246.18 1172.44 1242.77 1158.89 C 1239.36 1145.33 1247.39 1131.53 1260.86 1127.79 z"/>
<path transform="translate(0,0)" fill="rgb(11,46,88)" d="M 1657.41 992.273 C 1681.06 990.056 1702.05 1007.41 1704.31 1031.06 C 1706.57 1054.71 1689.26 1075.73 1665.62 1078.03 C 1641.91 1080.35 1620.82 1062.98 1618.55 1039.26 C 1616.28 1015.55 1633.69 994.497 1657.41 992.273 z"/>
<path transform="translate(0,0)" fill="rgb(247,250,250)" d="M 1657.03 1010.91 C 1670.55 1008.44 1683.49 1017.48 1685.83 1031.03 C 1688.16 1044.57 1678.99 1057.42 1665.43 1059.62 C 1652.05 1061.79 1639.41 1052.78 1637.11 1039.42 C 1634.81 1026.06 1643.7 1013.34 1657.03 1010.91 z"/>
<path transform="translate(0,0)" fill="rgb(11,46,88)" d="M 926.092 994.551 C 947.282 994.39 978.63 990.922 994.587 1006.11 C 1011.28 1022 1009.41 1047.91 994.584 1064.12 C 975.878 1079.76 950.022 1075.94 926.06 1075.75 L 926.092 994.551 z"/>
<path transform="translate(0,0)" fill="rgb(247,250,250)" d="M 944.726 1011.71 C 949.206 1010.18 953.89 1010.95 958.543 1010.79 C 970.353 1010.38 981.91 1014.54 985.733 1026.91 C 987.774 1033.65 987.046 1040.92 983.709 1047.12 C 976.867 1059.65 957.234 1063.1 944.826 1059.2 C 939.876 1051.81 941.626 1020.24 944.726 1011.71 z"/>
<path transform="translate(0,0)" fill="rgb(14,45,78)" d="M 944.826 1059.2 C 939.876 1051.81 941.626 1020.24 944.726 1011.71 C 945.585 1019.39 945.881 1051.07 944.826 1059.2 z"/>
<path transform="translate(0,0)" fill="rgb(11,119,186)" d="M 1071.96 876.819 L 1089.05 876.774 L 1089.1 959.818 L 1070.39 959.732 L 1070.2 941.75 L 1070.07 912.197 C 1063.32 923.184 1057.17 934.72 1050.15 945.54 C 1047.27 949.98 1045.22 951.799 1039.97 951.245 C 1033.04 947.177 1019.3 921.88 1013.49 912.871 L 1013.42 959.734 L 994.868 959.691 C 994.726 932.075 994.724 904.459 994.862 876.843 L 1011.89 876.839 C 1021.89 893.652 1032.04 910.376 1042.34 927.008 C 1052.33 910.638 1062.19 893.383 1071.96 876.819 z"/>
<path transform="translate(0,0)" fill="rgb(11,46,88)" d="M 1365.17 994.555 L 1381.67 994.44 L 1411.11 1043.45 L 1439.81 994.629 L 1456.4 994.576 L 1456.44 1075.77 L 1438.24 1075.79 L 1438.38 1029 C 1432.39 1038.14 1419.55 1065.97 1410.34 1067.82 C 1403.56 1065.23 1389.11 1037.68 1383.1 1030.23 C 1383.22 1039.07 1384 1069.6 1382.45 1076.43 C 1377.65 1075.34 1370.31 1075.71 1365.15 1075.76 L 1365.17 994.555 z"/>
<path transform="translate(0,0)" fill="rgb(14,45,78)" d="M 1383.1 1030.23 C 1383.22 1039.07 1384 1069.6 1382.45 1076.43 C 1380.24 1075.38 1379.91 1076.11 1377.99 1074.56 C 1378.4 1073.32 1380.12 1072.26 1381.34 1071.23 C 1382.83 1061.24 1374.81 1037.89 1383.1 1030.23 z"/>
<path transform="translate(0,0)" fill="rgb(11,46,88)" d="M 1867.01 994.471 L 1883.27 994.542 C 1883.26 1003.61 1884.23 1070.61 1882.13 1075.22 C 1879.19 1075.94 1868.74 1075.75 1865.1 1075.77 L 1865.08 1028.93 C 1835.63 1077.18 1842.1 1082.62 1809.74 1029.55 C 1809.94 1043.76 1809.96 1057.96 1809.79 1072.16 L 1809.43 1074.65 C 1806.48 1076.83 1795.75 1075.92 1791.81 1075.78 L 1791.77 994.537 L 1808.36 994.577 C 1811.3 999.431 1813.91 1004.1 1816.65 1009.08 C 1819.18 1011.74 1834.93 1039.09 1837.68 1043.84 C 1846.06 1030.89 1853.61 1015.48 1862.31 1002.8 L 1867.01 994.471 z"/>
<path transform="translate(0,0)" fill="rgb(14,45,78)" d="M 1791.77 994.537 L 1808.36 994.577 C 1811.3 999.431 1813.91 1004.1 1816.65 1009.08 C 1808.25 1005.33 1809.1 992.282 1796.85 998.035 C 1793.14 1007.56 1793.5 1062.09 1795.94 1073.21 C 1799.8 1073.45 1806.8 1074.35 1809.79 1072.16 L 1809.43 1074.65 C 1806.48 1076.83 1795.75 1075.92 1791.81 1075.78 L 1791.77 994.537 z"/>
<path transform="translate(0,0)" fill="rgb(14,45,78)" d="M 1867.01 994.471 L 1883.27 994.542 C 1883.26 1003.61 1884.23 1070.61 1882.13 1075.22 C 1880.53 1074.92 1881.06 1075.06 1879.6 1074.25 C 1880.52 1073.26 1880.15 1073.78 1880.76 1072.72 C 1881.16 1060.74 1880.03 1048.19 1880.09 1036.07 C 1880.13 1026.59 1884.16 1009.5 1880.93 1001.22 C 1876 996.648 1867.09 999.026 1862.31 1002.8 L 1867.01 994.471 z"/>
<path transform="translate(0,0)" fill="rgb(12,160,198)" d="M 1326.12 1110.29 C 1342.93 1110.12 1367.54 1107.98 1382.81 1113.99 C 1401.2 1121.23 1404.86 1147.84 1391.18 1161.31 C 1385.39 1167.03 1382.08 1168 1374.43 1170.47 C 1365.43 1171.57 1355.21 1171.36 1346.06 1171.43 L 1346.07 1194.52 C 1339.46 1194.6 1332.58 1194.44 1325.95 1194.39 C 1325.84 1166.36 1325.9 1138.33 1326.12 1110.29 z"/>
<path transform="translate(0,0)" fill="rgb(247,250,250)" d="M 1346.18 1127.08 C 1361.25 1126.81 1392.68 1127.23 1375.2 1151.58 C 1366.52 1156.6 1356.24 1155.19 1346.14 1155.02 L 1346.18 1127.08 z"/>
<path transform="translate(0,0)" fill="rgb(11,119,186)" d="M 1671.57 876.825 L 1688.33 876.792 L 1728.13 925.951 C 1728.19 911.967 1727.45 890.032 1728.55 876.827 L 1747.81 876.897 L 1747.91 927.854 C 1747.91 936.56 1748.31 950.134 1747.49 958.444 L 1745.86 959.725 L 1731.18 959.706 L 1691.18 910.173 L 1691.14 959.731 L 1671.48 959.762 L 1671.57 876.825 z"/>
<path transform="translate(0,0)" fill="rgb(11,46,88)" d="M 1094.66 1075.81 C 1094.65 1050.75 1094.48 1025.06 1094.76 999.979 C 1094.8 996.145 1094.88 996.84 1097.16 994.844 C 1101.88 994.626 1105.88 994.427 1110.62 994.608 L 1149.8 1042.95 C 1149.2 1026.82 1149.67 1010.71 1149.58 994.576 L 1168.42 994.589 L 1168.52 1075.7 L 1152.63 1075.74 L 1113.64 1028.11 C 1113.69 1041.8 1114.35 1061.13 1113.46 1074.39 L 1112.29 1075.31 C 1107.76 1075.87 1099.5 1075.75 1094.66 1075.81 z"/>
<path transform="translate(0,0)" fill="rgb(14,45,78)" d="M 1094.66 1075.81 C 1094.65 1050.75 1094.48 1025.06 1094.76 999.979 C 1094.8 996.145 1094.88 996.84 1097.16 994.844 C 1097.63 1006.76 1098.17 1018.46 1098.24 1030.39 C 1098.31 1041.74 1094.88 1063.14 1097.62 1073.34 C 1103.21 1075.55 1107.14 1073.92 1112.29 1075.31 C 1107.76 1075.87 1099.5 1075.75 1094.66 1075.81 z"/>
<path transform="translate(0,0)" fill="rgb(11,46,88)" d="M 1473.34 994.606 C 1489.66 994.422 1511.48 992.492 1526.91 998.087 C 1542.12 1003.6 1547.8 1021.6 1540.91 1035.64 C 1536.09 1045.46 1529.65 1048.58 1519.73 1051.73 C 1510.09 1052.96 1502.45 1052.78 1492.74 1052.76 L 1492.81 1075.75 L 1473.34 1075.76 L 1473.34 994.606 z"/>
<path transform="translate(0,0)" fill="rgb(247,250,250)" d="M 1492.77 1010.22 C 1507.91 1010.06 1533.92 1009.66 1520.89 1033.2 C 1512.57 1038.45 1502.66 1037.12 1492.85 1037 L 1492.77 1010.22 z"/>
<path transform="translate(0,0)" fill="rgb(11,46,88)" d="M 1976.27 994.415 L 1992.32 994.427 C 2005.04 1009.3 2018.94 1026.57 2031.02 1041.99 L 2030.96 994.572 L 2050.04 994.576 L 2050.17 1046.11 C 2050.18 1054.32 2050.59 1068.16 2049.64 1075.77 L 2034.8 1075.8 C 2021.6 1060.25 2008.37 1043.72 1995.36 1027.94 L 1995.38 1075.74 L 1976.29 1075.73 L 1976.27 994.415 z"/>
<path transform="translate(0,0)" fill="rgb(11,119,186)" d="M 1440.97 876.824 L 1461.01 876.845 C 1473.67 903.166 1486.51 933.066 1498.35 959.772 L 1477.59 959.741 C 1473.81 951.362 1474.19 943.061 1464.25 942.623 L 1432.36 942.659 L 1425.14 959.794 L 1404.87 959.712 C 1415.76 933.018 1429.35 903.467 1440.97 876.824 z"/>
<path transform="translate(0,0)" fill="rgb(247,250,250)" d="M 1450.46 897.78 C 1453.7 902.016 1460.8 920.347 1462.47 925.944 C 1460.29 927.415 1457.32 926.94 1454.25 927.014 L 1438.72 927.067 C 1441.96 917.868 1446.73 906.95 1450.46 897.78 z"/>
<path transform="translate(0,0)" fill="rgb(11,119,186)" d="M 1593.83 876.874 L 1656.32 876.816 L 1656.36 892.946 L 1613.35 892.895 L 1613.36 909.887 L 1651.68 909.928 L 1651.76 925.358 L 1614.34 925.347 C 1612.5 927.398 1613.27 939.744 1613.32 943.277 L 1658.23 943.205 L 1658.21 959.806 L 1593.87 959.775 L 1593.83 876.874 z"/>
<path transform="translate(0,0)" fill="rgb(11,119,186)" d="M 1161.1 876.816 L 1180.89 876.843 L 1180.96 894.273 C 1181 911.439 1184.57 937.838 1171.73 950.832 C 1158.69 964.917 1127.79 964.562 1114.9 950.708 C 1101.5 936.301 1105.82 896.66 1105.94 876.859 L 1125.85 876.834 C 1126.06 888.674 1122.43 934.103 1131.95 939.703 C 1169.88 962.001 1161.27 896.99 1161.1 876.816 z"/>
<path transform="translate(0,0)" fill="rgb(11,119,186)" d="M 1534.34 876.337 C 1537.13 876.077 1539.93 875.871 1542.74 875.72 C 1558.44 874.96 1568.23 879.563 1579.52 889.732 L 1566.89 901.611 C 1565.8 900.801 1564.71 900.002 1563.61 899.214 C 1550.61 889.93 1533.13 889.208 1523.83 904.291 C 1520.04 910.57 1518.94 918.112 1520.79 925.211 C 1525.79 945.025 1543.36 945.979 1559.52 940.953 L 1559.51 916.654 L 1577.95 916.651 L 1578.01 950.886 C 1561.11 961.488 1539.25 965.635 1521.11 955.45 C 1511.21 949.874 1503.98 940.532 1501.08 929.546 C 1493.99 903.251 1509.3 883.19 1534.34 876.337 z"/>
<path transform="translate(0,0)" fill="rgb(11,46,88)" d="M 1293.06 994.313 C 1311.97 994.889 1331.87 994.574 1350.88 994.534 L 1350.88 1010.6 L 1308.79 1010.62 L 1308.78 1027 L 1345.58 1026.96 L 1345.55 1042.14 L 1308.8 1042.19 L 1308.72 1060.16 L 1352.45 1060.2 L 1352.51 1075.79 L 1289.38 1075.77 C 1289.45 1066.32 1289.31 1056.07 1289.6 1046.69 C 1289.15 1040.22 1288.58 998.478 1290.55 994.845 L 1293.06 994.313 z"/>
<path transform="translate(0,0)" fill="rgb(14,45,78)" d="M 1289.6 1046.69 C 1289.15 1040.22 1288.58 998.478 1290.55 994.845 L 1293.06 994.313 C 1289.85 1006.43 1292.92 1018.22 1292.94 1030.66 C 1292.94 1038.42 1292.01 1046.25 1291.17 1053.97 C 1290.09 1052.68 1289.89 1048.73 1289.6 1046.69 z"/>
<path transform="translate(0,0)" fill="rgb(11,46,88)" d="M 1018.64 994.481 C 1027.89 994.517 1071.66 993.98 1078.37 995.108 C 1079.99 998.323 1079.37 1001.02 1079.13 1004.71 L 1079.28 1009.01 C 1077.15 1011.23 1074.54 1010.86 1070.84 1010.87 C 1059.84 1010.92 1048.76 1010.77 1037.76 1010.66 L 1037.79 1026.96 L 1075 1026.98 L 1074.98 1042.16 L 1037.81 1042.22 L 1037.77 1060.19 L 1081.36 1060.16 L 1081.45 1075.78 C 1073.09 1075.73 1025.31 1075.04 1019.23 1076.09 C 1018.27 1068.14 1018.59 1054.55 1018.58 1046.04 L 1018.64 994.481 z"/>
<path transform="translate(0,0)" fill="rgb(14,45,78)" d="M 1018.64 994.481 C 1027.89 994.517 1071.66 993.98 1078.37 995.108 C 1079.99 998.323 1079.37 1001.02 1079.13 1004.71 L 1076.29 997.597 C 1066.42 996.063 1026.56 994.159 1020.95 1001.76 C 1019.64 1012.82 1021.21 1026.74 1021.28 1038.22 C 1021.34 1048.65 1017.16 1065.93 1022.53 1074.19 C 1020.99 1075.89 1021.67 1075.28 1019.23 1076.09 C 1018.27 1068.14 1018.59 1054.55 1018.58 1046.04 L 1018.64 994.481 z"/>
<path transform="translate(0,0)" fill="rgb(11,46,88)" d="M 1901.3 994.486 L 1961.65 994.548 L 1961.59 1010.72 L 1919.54 1010.65 L 1919.64 1026.97 L 1956.95 1026.97 L 1956.97 1042.18 L 1920.17 1042.16 C 1919.1 1045.86 1919.59 1055.81 1919.64 1060.15 L 1963.44 1060.19 L 1963.36 1075.73 L 1900.66 1075.8 C 1900.74 1057.92 1900.71 1040.05 1900.56 1022.18 C 1900.54 1015.43 1900.17 1000.31 1901.3 994.486 z"/>
<path transform="translate(0,0)" fill="rgb(11,46,88)" d="M 837.308 994.498 L 856.767 994.517 C 856.714 1004.58 853.929 1050.09 861.562 1055.21 C 898.112 1079.74 890.655 1018.28 890.448 1000.08 C 890.655 998.294 890.449 996.173 891.633 995.551 C 896.055 993.228 904.28 994.721 909.476 994.63 C 909.45 1006.34 909.942 1023.28 909.178 1034.57 C 913.15 1072.92 876.858 1089.56 847.191 1067.83 C 833.206 1057.59 837.198 1012.28 837.308 994.498 z"/>
<path transform="translate(0,0)" fill="rgb(14,45,78)" d="M 890.448 1000.08 C 890.655 998.294 890.449 996.173 891.633 995.551 C 896.055 993.228 904.28 994.721 909.476 994.63 C 909.45 1006.34 909.942 1023.28 909.178 1034.57 C 905.001 1026.48 909.515 1011.36 906.798 1002.65 C 904.283 994.583 896.33 999.014 891.869 999.829 L 890.448 1000.08 z"/>
<path transform="translate(0,0)" fill="rgb(12,160,198)" d="M 1177.54 1109.31 C 1179.06 1109.22 1180.58 1109.18 1182.11 1109.19 C 1197.69 1109.33 1206.72 1113.18 1217.44 1124.14 L 1203.75 1136.43 C 1198.23 1131.07 1192.8 1127.44 1184.99 1126.45 C 1178.84 1125.67 1172.63 1127.38 1167.74 1131.19 C 1140.52 1152.31 1170.45 1199.61 1204.09 1168.73 L 1217.79 1181.02 C 1201.13 1197.82 1175.68 1202.14 1155.63 1188.6 C 1146 1182.1 1139.43 1171.99 1137.4 1160.56 C 1132.46 1132.32 1150.73 1113.57 1177.54 1109.31 z"/>
<path transform="translate(0,0)" fill="rgb(11,46,88)" d="M 713.665 994.426 C 724.184 992.272 737.069 992.763 746.79 997.574 C 750.121 998.984 749.488 998.191 751.47 1000.74 C 751.702 1005.25 748.808 1010.54 746.898 1014.88 C 738.074 1010.29 712.505 1002.81 709.56 1017.53 C 713.888 1027.3 735.419 1027.56 745.563 1033.67 C 766.134 1046.07 756.06 1071.32 735.143 1075.62 C 718.002 1079.14 704.454 1076.64 689.179 1067.52 L 695.993 1052.76 C 705.188 1058.49 733.377 1069.64 737.205 1053.32 C 733.574 1042.86 710.159 1043.1 699.473 1035.53 C 680.152 1021.84 692.861 997.994 713.665 994.426 z"/>
<path transform="translate(0,0)" fill="rgb(14,45,78)" d="M 713.665 994.426 C 724.184 992.272 737.069 992.763 746.79 997.574 L 744.753 998.384 C 736.037 996.105 720.069 998.446 713.665 994.426 z"/>
<path transform="translate(0,0)" fill="rgb(12,160,198)" d="M 1609.26 1110.24 L 1681.55 1110.24 L 1681.47 1127.15 L 1655.11 1127.21 L 1655.09 1167.5 L 1655.1 1194.45 L 1635.11 1194.34 L 1635 1127.21 L 1609.2 1127.13 L 1609.26 1110.24 z"/>
<path transform="translate(0,0)" fill="rgb(11,46,88)" d="M 1766.34 994.46 L 1786.24 994.404 L 1769.11 1022.81 L 1754.15 1047.51 L 1754.18 1075.76 L 1735.03 1075.73 L 1735.02 1047.27 C 1730.92 1040.45 1704.47 999.29 1704.53 994.479 C 1711.03 994.644 1718.06 994.52 1724.61 994.535 C 1730.85 1005.86 1738.78 1018.49 1745.46 1029.73 L 1766.34 994.46 z"/>
<path transform="translate(0,0)" fill="rgb(11,119,186)" d="M 1757.51 876.834 L 1828.81 876.846 L 1828.88 893.029 L 1802.78 893.031 L 1802.82 934.5 L 1802.86 959.82 C 1795.97 959.873 1789.7 959.983 1782.81 959.448 L 1782.76 893.103 L 1757.42 893.09 L 1757.51 876.834 z"/>
<path transform="translate(0,0)" fill="rgb(11,119,186)" d="M 1252.9 876.86 L 1323.98 876.884 L 1323.98 893.068 C 1316.98 893.069 1304.55 893.428 1298.02 892.495 C 1298.55 914.569 1298.2 937.637 1298.16 959.79 L 1278.2 959.812 C 1278.59 942.666 1277.03 907.853 1278.9 892.343 C 1271.65 893.575 1260.49 893.151 1252.83 893.077 L 1252.9 876.86 z"/>
<path transform="translate(0,0)" fill="rgb(11,46,88)" d="M 821.529 994.493 C 824.126 994.356 825.442 994.004 827.684 995.292 C 830.005 999.346 828.935 1005.59 828.787 1010.81 L 803.736 1010.8 L 803.772 1075.76 L 784.343 1075.75 L 784.35 1060.04 L 784.369 1010.77 L 759.311 1010.75 L 759.416 994.527 L 821.529 994.493 z"/>
<path transform="translate(0,0)" fill="rgb(11,46,88)" d="M 1177.95 994.642 L 1247.59 994.595 L 1247.68 1010.81 L 1222.61 1010.75 C 1221.42 1015.32 1222.11 1068.44 1222.16 1075.72 L 1202.74 1075.79 C 1202.89 1054.79 1202.12 1030.62 1203.18 1009.91 C 1197.02 1011.37 1184.84 1010.74 1177.94 1010.77 L 1177.95 994.642 z"/>
<path transform="translate(0,0)" fill="rgb(14,45,78)" d="M 1177.95 994.642 L 1247.59 994.595 L 1247.68 1010.81 L 1222.61 1010.75 L 1221.76 1009.66 C 1224.43 1005.82 1235.59 1011.84 1242.94 1006.86 C 1244.3 1003.33 1243.67 1001.69 1243.06 997.959 C 1235.33 996.074 1191.25 996.466 1181.5 996.49 L 1181.45 1007.71 C 1187.2 1007.38 1199.53 1005.83 1203.18 1009.91 C 1197.02 1011.37 1184.84 1010.74 1177.94 1010.77 L 1177.95 994.642 z"/>
<path transform="translate(0,0)" fill="rgb(11,46,88)" d="M 2059.67 994.635 L 2128.67 994.557 L 2128.73 1010.77 L 2103.79 1010.74 C 2103.74 1021.26 2102.95 1065.93 2104.35 1074.52 C 2101.23 1076.62 2089.08 1075.82 2084.62 1075.78 C 2084.61 1055.78 2083.96 1030.76 2085.07 1011.18 C 2077.27 1010.39 2067.59 1010.76 2059.62 1010.84 L 2059.67 994.635 z"/>
<path transform="translate(0,0)" fill="rgb(14,45,78)" d="M 2085.07 1011.18 L 2086.36 1011.47 C 2088.9 1021.1 2087.28 1059.7 2088.22 1072.26 C 2088.82 1072.78 2089.42 1073.3 2090.01 1073.81 C 2096.06 1074.59 2099.98 1071.23 2103.12 1072.22 L 2104.35 1074.52 C 2101.23 1076.62 2089.08 1075.82 2084.62 1075.78 C 2084.61 1055.78 2083.96 1030.76 2085.07 1011.18 z"/>
<path transform="translate(0,0)" fill="rgb(12,160,198)" d="M 1326.12 1110.29 C 1342.93 1110.12 1367.54 1107.98 1382.81 1113.99 C 1401.2 1121.23 1404.86 1147.84 1391.18 1161.31 C 1385.39 1167.03 1382.08 1168 1374.43 1170.47 C 1365.43 1171.57 1355.21 1171.36 1346.06 1171.43 L 1346.07 1194.52 C 1339.46 1194.6 1332.58 1194.44 1325.95 1194.39 C 1325.84 1166.36 1325.9 1138.33 1326.12 1110.29 z"/>
<path transform="translate(0,0)" fill="rgb(247,250,250)" d="M 1346.18 1127.08 C 1361.25 1126.81 1392.68 1127.23 1375.2 1151.58 C 1366.52 1156.6 1356.24 1155.19 1346.14 1155.02 L 1346.18 1127.08 z"/>
<path transform="translate(0,0)" fill="rgb(12,160,198)" d="M 1450.12 1110.32 L 1469.7 1110.28 L 1469.87 1177.85 L 1511.53 1177.92 L 1511.5 1194.49 C 1492.18 1195.09 1469.55 1194.48 1449.97 1194.45 C 1449.75 1166.41 1449.8 1138.37 1450.12 1110.32 z"/>
<path transform="translate(0,0)" fill="rgb(11,119,186)" d="M 1197.41 876.83 L 1217.84 876.834 L 1217.82 943.286 L 1258.6 943.202 C 1258.65 947.102 1259.28 956.978 1257.7 959.84 L 1197.31 959.715 C 1198.16 933.627 1197.43 903.33 1197.41 876.83 z"/>
<path transform="translate(0,0)" fill="rgb(11,46,88)" d="M 1555.4 994.604 L 1574.85 994.582 L 1574.87 1059.92 L 1614.34 1059.94 L 1614.33 1075.74 L 1555.38 1075.74 L 1555.4 994.604 z"/>
<path transform="translate(0,0)" fill="rgb(12,160,198)" d="M 1412.11 1110.27 L 1431.63 1110.34 C 1432.35 1137.56 1431.75 1167.06 1431.63 1194.45 L 1411.98 1194.53 C 1411.84 1166.44 1411.88 1138.35 1412.11 1110.27 z"/>
<path transform="translate(0,0)" fill="rgb(11,119,186)" d="M 1333.86 876.858 L 1353.65 876.771 L 1353.65 959.731 L 1333.87 959.749 L 1333.86 876.858 z"/>
</svg>
